<svg id="レイヤー_1" data-name="レイヤー 1" xmlns="http://www.w3.org/2000/svg" viewBox="0 0 2800 1200"><defs><style>.cls-1{fill:none;}.cls-2{fill:#3c6;}</style></defs><title>green</title><rect class="cls-1" width="2800" height="1200"/><path class="cls-2" d="M1992,495h56a3,3,0,0,0,3-3V430.19a4,4,0,0,1,3.1-3.9l67.23-15.45a3,3,0,0,1,3.67,2.93V492a3,3,0,0,0,3,3h83a4,4,0,0,1,4,4v53a4,4,0,0,1-4,4l-83,0a3,3,0,0,0-3,3V662c0,49.51,7.28,77,48,77,14.25,0,31.52-1.79,38.66-2.6a3,3,0,0,1,3.34,3v51.48a4,4,0,0,1-3.11,3.9c-7.15,1.61-26.22,5.24-52.89,5.24-83.5,0-108-49.52-108-138V559a3,3,0,0,0-3-3l-56,0a4,4,0,0,1-4-4V499A4,4,0,0,1,1992,495Z"/><path class="cls-2" d="M1057,375h83a6,6,0,0,1,5,2.7l198.37,300.74a2,2,0,0,0,3.67-1.1V379a4,4,0,0,1,4-4h71a4,4,0,0,1,4,4V790a4,4,0,0,1-4,4h-82.77a6,6,0,0,1-5-2.69L1135.67,490.56a2,2,0,0,0-3.67,1.1V790a4,4,0,0,1-4,4h-71a4,4,0,0,1-4-4V379A4,4,0,0,1,1057,375Z"/><path class="cls-2" d="M1505,495h66a4,4,0,0,1,4,4V642c0,52.73,16.53,96.77,71.61,96.77S1719,694.73,1719,642V499a4,4,0,0,1,4-4h66a4,4,0,0,1,4,4V790a4,4,0,0,1-4,4h-65a4,4,0,0,1-4-4V755.56a2,2,0,0,0-3.73-1c-8.33,14.64-31.67,45.43-80.8,45.43C1538.21,800,1501,735.16,1501,642V499A4,4,0,0,1,1505,495Z"/><rect class="cls-2" x="1868" y="495" width="74" height="299" rx="4"/><path class="cls-2" d="M2395.71,488.87a109.6,109.6,0,0,1,90.66,46.45,2,2,0,0,0,3.63-1.16v-36a4,4,0,0,1,3.09-3.9l66.23-15.42a3,3,0,0,1,3.68,2.92V790a4,4,0,0,1-4,4h-65a4,4,0,0,1-4-4V754.82a2,2,0,0,0-3.63-1.16A109.65,109.65,0,0,1,2395.71,800C2306.94,800,2246,730.27,2246,644.43S2306.94,488.87,2395.71,488.87Zm8.79,249.9c52.14,0,85-42.19,85-94.34s-32.82-94.33-85-94.33-85,42.19-85,94.33S2352.35,738.77,2404.5,738.77Z"/><circle class="cls-2" cx="1905" cy="406" r="43"/><path class="cls-2" d="M867,441V375c0-144-108-216-306-216S255,231,255,375v66c0,53.43-54,108-54,144s54,108,54,162v80c0,72,18,108,90,144l216,108L777,971c72-36,90-72,90-144V747c0-54,54-126,54-162S867,494.43,867,441ZM690.71,770.12A20,20,0,0,1,668.27,786l-98.78-14.11a60.3,60.3,0,0,0-17,0L453.73,786a20,20,0,0,1-22.44-15.87L417,698.67l139.15-34.79a20.15,20.15,0,0,1,9.7,0L705,698.67ZM831,603l-36,72L615,633.46V585a2,2,0,0,0-4,0c0,23.53-17.65,35.29-50,35.29S511,608.53,511,585a2,2,0,0,0-4,0v48.46L327,675l-36-72c-18-36,18-75.15,18-126V375c0-144,126-180,252-180s252,36,252,180V477C813,527.85,849,567,831,603Z"/><path class="cls-2" d="M361,461a2,2,0,0,0,2,2c112,8,130,16,140,68a2,2,0,0,0,4,0V459H363A2,2,0,0,0,361,461Z"/><path class="cls-2" d="M759,459H615v72a2,2,0,0,0,4,0c10-52,28-60,140-68a2,2,0,0,0,0-4Z"/></svg>