<?xml version="1.0" encoding="utf-8"?>
<!-- Generator: Adobe Illustrator 23.0.2, SVG Export Plug-In . SVG Version: 6.00 Build 0)  -->
<svg version="1.1" xmlns="http://www.w3.org/2000/svg" xmlns:xlink="http://www.w3.org/1999/xlink" x="0px" y="0px"
	 viewBox="0 0 600 600" style="enable-background:new 0 0 600 600;" xml:space="preserve">
<style type="text/css">
	.st0{display:none;}
	.st1{display:inline;fill:#36CA6C;}
	.st2{fill:none;}
	.st3{fill:#36CA6C;}
	.st4{fill:#FFFFFF;}
	.st5{fill:#231815;}
</style>
<g id="bg" class="st0">
</g>
<g id="logo">
	<g>
		<rect x="0" class="st2" width="600" height="600"/>
		<path class="st3" d="M453,225v-33c0-72-54-108-153-108s-153,36-153,108v33c0,26.714-27,54-27,72s27,54,27,81c0,21.583,0,4,0,40
			s9,54,45,72l108,54l108-54c36-18,45-36,45-72s0-18.417,0-40c0-27,27-63,27-81S453,251.714,453,225z M364.855,389.559
			c-1.041,5.204-5.966,8.689-11.22,7.938l-49.393-7.056c-2.814-0.402-5.671-0.402-8.485,0l-49.393,7.056
			c-5.254,0.75-10.179-2.734-11.22-7.938L228,353.835l69.575-17.394c1.593-0.398,3.258-0.398,4.851,0L372,353.835L364.855,389.559z
			 M435,306l-18,36l-90-20.769V297h-2c0,11.765-8.823,17.647-25,17.647c-16.176,0-25-5.882-25-17.647h-2v24.231L183,342l-18-36
			c-9-18,9-37.576,9-63c0-9,0-42,0-51c0-72,63-90,126-90s126,18,126,90c0,9,0,42,0,51C426,268.424,444,288,435,306z M327,234h72v2
			c-56,4-65,8-70,34h-2C327,263,327,234,327,234z M201,234h72c0,0,0,29,0,36h-2c-5-26-14-30-70-34V234z"/>
	</g>
</g>
</svg>
