<?xml version="1.0" encoding="UTF-8" standalone="no"?>
<svg
   xmlns:dc="http://purl.org/dc/elements/1.1/"
   xmlns:cc="http://creativecommons.org/ns#"
   xmlns:rdf="http://www.w3.org/1999/02/22-rdf-syntax-ns#"
   xmlns:svg="http://www.w3.org/2000/svg"
   xmlns="http://www.w3.org/2000/svg"
   xmlns:sodipodi="http://sodipodi.sourceforge.net/DTD/sodipodi-0.dtd"
   xmlns:inkscape="http://www.inkscape.org/namespaces/inkscape"
   id="レイヤー_1"
   data-name="レイヤー 1"
   viewBox="0 0 2800 1200"
   version="1.1"
   sodipodi:docname="logo_white.svg"
   inkscape:version="1.0.1 (c497b03c, 2020-09-10)">
  <metadata
     id="metadata140">
    <rdf:RDF>
      <cc:Work
         rdf:about="">
        <dc:format>image/svg+xml</dc:format>
        <dc:type
           rdf:resource="http://purl.org/dc/dcmitype/StillImage" />
        <dc:title>green</dc:title>
      </cc:Work>
    </rdf:RDF>
  </metadata>
  <sodipodi:namedview
     pagecolor="#000000"
     bordercolor="#666666"
     borderopacity="1"
     objecttolerance="10"
     gridtolerance="10"
     guidetolerance="10"
     inkscape:pageopacity="0"
     inkscape:pageshadow="2"
     inkscape:window-width="1920"
     inkscape:window-height="1080"
     id="namedview138"
     showgrid="false"
     inkscape:pagecheckerboard="false"
     inkscape:zoom="0.5320781"
     inkscape:cx="1210.3129"
     inkscape:cy="540.44308"
     inkscape:window-x="0"
     inkscape:window-y="0"
     inkscape:window-maximized="0"
     inkscape:current-layer="レイヤー_1" />
  <defs
     id="defs113">
    <style
       id="style111">.cls-1{fill:none;}.cls-2{fill:#fff;}</style>
  </defs>
  <title
     id="title115">green</title>
  <rect
     class="cls-1"
     width="2800"
     height="1200"
     id="rect117" />
  <path
     class="cls-2"
     d="m 1860,495 h 56 a 3,3 0 0 0 3,-3 v -61.81 a 4,4 0 0 1 3.1,-3.9 l 67.23,-15.45 a 3,3 0 0 1 3.67,2.93 V 492 a 3,3 0 0 0 3,3 h 83 a 4,4 0 0 1 4,4 v 53 a 4,4 0 0 1 -4,4 h -83 a 3,3 0 0 0 -3,3 v 103 c 0,49.51 7.28,77 48,77 14.25,0 31.52,-1.79 38.66,-2.6 a 3,3 0 0 1 3.34,3 v 51.48 a 4,4 0 0 1 -3.11,3.9 c -7.15,1.61 -26.22,5.24 -52.89,5.24 -83.5,0 -108,-49.52 -108,-138 V 559 a 3,3 0 0 0 -3,-3 h -56 a 4,4 0 0 1 -4,-4 v -53 a 4,4 0 0 1 4,-4 z"
     id="path119" />
  <path
     class="cls-2"
     d="m 925,375 h 83 a 6,6 0 0 1 5,2.7 l 198.37,300.74 a 2,2 0 0 0 3.67,-1.1 V 379 a 4,4 0 0 1 4,-4 h 71 a 4,4 0 0 1 4,4 v 411 a 4,4 0 0 1 -4,4 h -82.77 a 6,6 0 0 1 -5,-2.69 l -198.6,-300.75 a 2,2 0 0 0 -3.67,1.1 V 790 a 4,4 0 0 1 -4,4 h -71 a 4,4 0 0 1 -4,-4 V 379 a 4,4 0 0 1 4,-4 z"
     id="path121" />
  <path
     class="cls-2"
     d="m 1373,495 h 66 a 4,4 0 0 1 4,4 v 143 c 0,52.73 16.53,96.77 71.61,96.77 55.08,0 72.39,-44.04 72.39,-96.77 V 499 a 4,4 0 0 1 4,-4 h 66 a 4,4 0 0 1 4,4 v 291 a 4,4 0 0 1 -4,4 h -65 a 4,4 0 0 1 -4,-4 v -34.44 a 2,2 0 0 0 -3.73,-1 c -8.33,14.64 -31.67,45.43 -80.8,45.43 C 1406.21,800 1369,735.16 1369,642 V 499 a 4,4 0 0 1 4,-4 z"
     id="path123" />
  <rect
     class="cls-2"
     x="1736"
     y="495"
     width="74"
     height="299"
     rx="4"
     id="rect125" />
  <path
     class="cls-2"
     d="m 2263.71,488.87 a 109.6,109.6 0 0 1 90.66,46.45 2,2 0 0 0 3.63,-1.16 v -36 a 4,4 0 0 1 3.09,-3.9 l 66.23,-15.42 a 3,3 0 0 1 3.68,2.92 V 790 a 4,4 0 0 1 -4,4 h -65 a 4,4 0 0 1 -4,-4 v -35.18 a 2,2 0 0 0 -3.63,-1.16 109.65,109.65 0 0 1 -90.66,46.34 C 2174.94,800 2114,730.27 2114,644.43 c 0,-85.84 60.94,-155.56 149.71,-155.56 z m 8.79,249.9 c 52.14,0 85,-42.19 85,-94.34 0,-52.15 -32.82,-94.33 -85,-94.33 -52.18,0 -85,42.19 -85,94.33 0,52.14 32.85,94.34 85,94.34 z"
     id="path127" />
  <circle
     class="cls-2"
     cx="1773"
     cy="406"
     id="circle129"
     r="43" />
  <path
     class="cls-2"
     d="M 735,441 V 375 C 735,231 627,159 429,159 231,159 123,231 123,375 v 66 c 0,53.43 -54,108 -54,144 0,36 54,108 54,162 v 80 c 0,72 18,108 90,144 l 216,108 216,-108 c 72,-36 90,-72 90,-144 v -80 c 0,-54 54,-126 54,-162 0,-36 -54,-90.57 -54,-144 z M 558.71,770.12 A 20,20 0 0 1 536.27,786 l -98.78,-14.11 a 60.3,60.3 0 0 0 -17,0 L 321.73,786 A 20,20 0 0 1 299.29,770.13 L 285,698.67 424.15,663.88 a 20.15,20.15 0 0 1 9.7,0 L 573,698.67 Z M 699,603 663,675 483,633.46 V 585 a 2,2 0 0 0 -4,0 c 0,23.53 -17.65,35.29 -50,35.29 -32.35,0 -50,-11.76 -50,-35.29 a 2,2 0 0 0 -4,0 v 48.46 L 195,675 159,603 c -18,-36 18,-75.15 18,-126 V 375 c 0,-144 126,-180 252,-180 126,0 252,36 252,180 v 102 c 0,50.85 36,90 18,126 z"
     id="path131" />
  <path
     class="cls-2"
     d="m 229,461 a 2,2 0 0 0 2,2 c 112,8 130,16 140,68 a 2,2 0 0 0 4,0 V 459 H 231 a 2,2 0 0 0 -2,2 z"
     id="path133" />
  <path
     class="cls-2"
     d="M 627,459 H 483 v 72 a 2,2 0 0 0 4,0 c 10,-52 28,-60 140,-68 a 2,2 0 0 0 0,-4 z"
     id="path135" />
</svg>
